<?xml version='1.0' encoding='UTF-8'?>
<svg width="30mm" height="30mm" version="1.1" viewBox="0 0 30 30" xmlns="http://www.w3.org/2000/svg"><path d="M2.4,2.4H3.6V3.6H2.4zM3.6,2.4H4.8V3.6H3.6zM4.8,2.4H6V3.6H4.8zM6,2.4H7.2V3.6H6zM7.2,2.4H8.4V3.6H7.2zM8.4,2.4H9.6V3.6H8.4zM9.6,2.4H10.8V3.6H9.6zM12,2.4H13.2V3.6H12zM13.2,2.4H14.4V3.6H13.2zM15.6,2.4H16.8V3.6H15.6zM19.2,2.4H20.4V3.6H19.2zM20.4,2.4H21.6V3.6H20.4zM21.6,2.4H22.8V3.6H21.6zM22.8,2.4H24V3.6H22.8zM24,2.4H25.2V3.6H24zM25.2,2.4H26.4V3.6H25.2zM26.4,2.4H27.6V3.6H26.4zM2.4,3.6H3.6V4.8H2.4zM9.6,3.6H10.8V4.8H9.6zM16.8,3.6H18V4.8H16.8zM19.2,3.6H20.4V4.8H19.2zM26.4,3.6H27.6V4.8H26.4zM2.4,4.8H3.6V6H2.4zM4.8,4.8H6V6H4.8zM6,4.8H7.2V6H6zM7.2,4.8H8.4V6H7.2zM9.6,4.8H10.8V6H9.6zM13.2,4.8H14.4V6H13.2zM16.8,4.8H18V6H16.8zM19.2,4.8H20.4V6H19.2zM21.6,4.8H22.8V6H21.6zM22.8,4.8H24V6H22.8zM24,4.8H25.2V6H24zM26.4,4.8H27.6V6H26.4zM2.4,6H3.6V7.2H2.4zM4.8,6H6V7.2H4.8zM6,6H7.2V7.2H6zM7.2,6H8.4V7.2H7.2zM9.6,6H10.8V7.2H9.6zM12,6H13.2V7.2H12zM13.2,6H14.4V7.2H13.2zM15.6,6H16.8V7.2H15.6zM19.2,6H20.4V7.2H19.2zM21.6,6H22.8V7.2H21.6zM22.8,6H24V7.2H22.8zM24,6H25.2V7.2H24zM26.4,6H27.6V7.2H26.4zM2.4,7.2H3.6V8.4H2.4zM4.8,7.2H6V8.4H4.8zM6,7.2H7.2V8.4H6zM7.2,7.2H8.4V8.4H7.2zM9.6,7.2H10.8V8.4H9.6zM12,7.2H13.2V8.4H12zM13.2,7.2H14.4V8.4H13.2zM15.6,7.2H16.8V8.4H15.6zM16.8,7.2H18V8.4H16.8zM19.2,7.2H20.4V8.4H19.2zM21.6,7.2H22.8V8.4H21.6zM22.8,7.2H24V8.4H22.8zM24,7.2H25.2V8.4H24zM26.4,7.2H27.6V8.4H26.4zM2.4,8.4H3.6V9.6H2.4zM9.6,8.4H10.8V9.6H9.6zM12,8.4H13.2V9.6H12zM13.2,8.4H14.4V9.6H13.2zM14.4,8.4H15.6V9.6H14.4zM16.8,8.4H18V9.6H16.8zM19.2,8.4H20.4V9.6H19.2zM26.4,8.4H27.6V9.6H26.4zM2.4,9.6H3.6V10.8H2.4zM3.6,9.6H4.8V10.8H3.6zM4.8,9.6H6V10.8H4.8zM6,9.6H7.2V10.8H6zM7.2,9.6H8.4V10.8H7.2zM8.4,9.6H9.6V10.8H8.4zM9.6,9.6H10.8V10.8H9.6zM12,9.6H13.2V10.8H12zM14.4,9.6H15.6V10.8H14.4zM16.8,9.6H18V10.8H16.8zM19.2,9.6H20.4V10.8H19.2zM20.4,9.6H21.6V10.8H20.4zM21.6,9.6H22.8V10.8H21.6zM22.8,9.6H24V10.8H22.8zM24,9.6H25.2V10.8H24zM25.2,9.6H26.4V10.8H25.2zM26.4,9.6H27.6V10.8H26.4zM12,10.8H13.2V12H12zM2.4,12H3.6V13.2H2.4zM7.2,12H8.4V13.2H7.2zM9.6,12H10.8V13.2H9.6zM10.8,12H12V13.2H10.8zM12,12H13.2V13.2H12zM13.2,12H14.4V13.2H13.2zM14.4,12H15.6V13.2H14.4zM16.8,12H18V13.2H16.8zM18,12H19.2V13.2H18zM19.2,12H20.4V13.2H19.2zM20.4,12H21.6V13.2H20.4zM21.6,12H22.8V13.2H21.6zM22.8,12H24V13.2H22.8zM26.4,12H27.6V13.2H26.4zM7.2,13.2H8.4V14.4H7.2zM12,13.2H13.2V14.4H12zM14.4,13.2H15.6V14.4H14.4zM16.8,13.2H18V14.4H16.8zM18,13.2H19.2V14.4H18zM21.6,13.2H22.8V14.4H21.6zM25.2,13.2H26.4V14.4H25.2zM4.8,14.4H6V15.6H4.8zM6,14.4H7.2V15.6H6zM7.2,14.4H8.4V15.6H7.2zM8.4,14.4H9.6V15.6H8.4zM9.6,14.4H10.8V15.6H9.6zM10.8,14.4H12V15.6H10.8zM12,14.4H13.2V15.6H12zM16.8,14.4H18V15.6H16.8zM19.2,14.4H20.4V15.6H19.2zM21.6,14.4H22.8V15.6H21.6zM22.8,14.4H24V15.6H22.8zM25.2,14.4H26.4V15.6H25.2zM3.6,15.6H4.8V16.8H3.6zM6,15.6H7.2V16.8H6zM7.2,15.6H8.4V16.8H7.2zM12,15.6H13.2V16.8H12zM15.6,15.6H16.8V16.8H15.6zM16.8,15.6H18V16.8H16.8zM18,15.6H19.2V16.8H18zM2.4,16.8H3.6V18H2.4zM4.8,16.8H6V18H4.8zM7.2,16.8H8.4V18H7.2zM9.6,16.8H10.8V18H9.6zM12,16.8H13.2V18H12zM13.2,16.8H14.4V18H13.2zM14.4,16.8H15.6V18H14.4zM15.6,16.8H16.8V18H15.6zM18,16.8H19.2V18H18zM20.4,16.8H21.6V18H20.4zM21.6,16.8H22.8V18H21.6zM26.4,16.8H27.6V18H26.4zM12,18H13.2V19.2H12zM13.2,18H14.4V19.2H13.2zM16.8,18H18V19.2H16.8zM19.2,18H20.4V19.2H19.2zM21.6,18H22.8V19.2H21.6zM22.8,18H24V19.2H22.8zM24,18H25.2V19.2H24zM26.4,18H27.6V19.2H26.4zM2.4,19.2H3.6V20.4H2.4zM3.6,19.2H4.8V20.4H3.6zM4.8,19.2H6V20.4H4.8zM6,19.2H7.2V20.4H6zM7.2,19.2H8.4V20.4H7.2zM8.4,19.2H9.6V20.4H8.4zM9.6,19.2H10.8V20.4H9.6zM12,19.2H13.2V20.4H12zM14.4,19.2H15.6V20.4H14.4zM15.6,19.2H16.8V20.4H15.6zM18,19.2H19.2V20.4H18zM21.6,19.2H22.8V20.4H21.6zM25.2,19.2H26.4V20.4H25.2zM2.4,20.4H3.6V21.6H2.4zM9.6,20.4H10.8V21.6H9.6zM14.4,20.4H15.6V21.6H14.4zM16.8,20.4H18V21.6H16.8zM18,20.4H19.2V21.6H18zM20.4,20.4H21.6V21.6H20.4zM22.8,20.4H24V21.6H22.8zM2.4,21.6H3.6V22.8H2.4zM4.8,21.6H6V22.8H4.8zM6,21.6H7.2V22.8H6zM7.2,21.6H8.4V22.8H7.2zM9.6,21.6H10.8V22.8H9.6zM12,21.6H13.2V22.8H12zM13.2,21.6H14.4V22.8H13.2zM14.4,21.6H15.6V22.8H14.4zM15.6,21.6H16.8V22.8H15.6zM16.8,21.6H18V22.8H16.8zM18,21.6H19.2V22.8H18zM2.4,22.8H3.6V24H2.4zM4.8,22.8H6V24H4.8zM6,22.8H7.2V24H6zM7.2,22.8H8.4V24H7.2zM9.6,22.8H10.8V24H9.6zM13.2,22.8H14.4V24H13.2zM14.4,22.8H15.6V24H14.4zM15.6,22.8H16.8V24H15.6zM16.8,22.8H18V24H16.8zM18,22.8H19.2V24H18zM19.2,22.8H20.4V24H19.2zM20.4,22.8H21.6V24H20.4zM21.6,22.8H22.8V24H21.6zM24,22.8H25.2V24H24zM25.2,22.8H26.4V24H25.2zM26.4,22.8H27.6V24H26.4zM2.4,24H3.6V25.2H2.4zM4.8,24H6V25.2H4.8zM6,24H7.2V25.2H6zM7.2,24H8.4V25.2H7.2zM9.6,24H10.8V25.2H9.6zM13.2,24H14.4V25.2H13.2zM14.4,24H15.6V25.2H14.4zM18,24H19.2V25.2H18zM19.2,24H20.4V25.2H19.2zM21.6,24H22.8V25.2H21.6zM22.8,24H24V25.2H22.8zM2.4,25.2H3.6V26.4H2.4zM9.6,25.2H10.8V26.4H9.6zM15.6,25.2H16.8V26.4H15.6zM18,25.2H19.2V26.4H18zM20.4,25.2H21.6V26.4H20.4zM21.6,25.2H22.8V26.4H21.6zM2.4,26.4H3.6V27.6H2.4zM3.6,26.4H4.8V27.6H3.6zM4.8,26.4H6V27.6H4.8zM6,26.4H7.2V27.6H6zM7.2,26.4H8.4V27.6H7.2zM8.4,26.4H9.6V27.6H8.4zM9.6,26.4H10.8V27.6H9.6zM12,26.4H13.2V27.6H12zM13.2,26.4H14.4V27.6H13.2zM14.4,26.4H15.6V27.6H14.4zM15.6,26.4H16.8V27.6H15.6zM16.8,26.4H18V27.6H16.8zM22.8,26.4H24V27.6H22.8zM24,26.4H25.2V27.6H24zM26.4,26.4H27.6V27.6H26.4z" id="qr-path" fill="#000000" fill-opacity="1" fill-rule="nonzero" stroke="none"/></svg>