<?xml version="1.0" encoding="UTF-8"?>
<svg style="overflow:hidden" id="Layer_2" data-name="Layer 2" xmlns="http://www.w3.org/2000/svg" viewBox="288 1936.82 592.34 592.34" overflow="hidden">
  <defs>
    <style>
      .cls-1 {
        fill: #0f172a;
      }

      .cls-1, .cls-2, .cls-3, .cls-4, .cls-5, .cls-6, .cls-7, .cls-8, .cls-9, .cls-10, .cls-11, .cls-12, .cls-13, .cls-14, .cls-15, .cls-16, .cls-17, .cls-18, .cls-19, .cls-20, .cls-21, .cls-22, .cls-23, .cls-24 {
        stroke-width: 0px;
      }

      .cls-2 {
        fill: #6d5bff;
      }

      .cls-3 {
        fill: #101218;
      }

      .cls-4 {
        fill: #0e7490;
      }

      .cls-5 {
        fill: #1e40af;
      }

      .cls-7 {
        fill: #424250;
      }

      .cls-8 {
        fill: #0c0d18;
      }

      .cls-9 {
        fill: #f8fafc;
      }

      .cls-10 {
        fill: #438afe;
      }

      .cls-11 {
        fill: #00e576;
      }

      .cls-12 {
        fill: #38bdf8;
      }

      .cls-13 {
        fill: #0b1220;
      }

      .cls-14 {
        fill: #fff;
      }

      .cls-15 {
        fill: #0ea5e9;
      }

      .cls-16 {
        fill: #68687a;
      }

      .cls-17 {
        fill: #cac0ac;
      }

      .cls-18 {
        fill: #e9e4da;
      }

      .cls-19 {
        fill: #2f2f30;
      }

      .cls-20 {
        fill: #c6c6c6;
      }

      .cls-21 {
        fill: #1d4ed8;
      }

      .cls-22 {
        fill: #00e381;
      }

      .cls-23 {
        fill: #3b82f6;
      }

      .cls-24 {
        fill: #22d3ee;
      }
    </style>
  </defs>
  <g id="Layer_1-2" data-name="Layer 1">
    <rect class="cls-8" x="1023.01" y="1957.22" width="592.34" height="592.34" rx="164.94" ry="164.94"/>
    <rect class="cls-8" x="1012.41" y="1129.48" width="592.34" height="592.34" rx="164.94" ry="164.94"/>
    <g>
      <path class="cls-11" d="m1353.41,2288.58h-142.51v-194.89h142.51c42.86,0,77.61,34.75,77.61,77.61v39.67c0,42.86-34.75,77.61-77.61,77.61Z"/>
      <polygon class="cls-10" points="1309.26 2320.39 1383.37 2442.03 1455.03 2442.03 1357.77 2296.26 1309.26 2320.39"/>
    </g>
    <g>
      <rect class="cls-8" x="1061.42" y="2745.22" width="592.34" height="592.34" rx="164.94" ry="164.94"/>
      <g>
        <path class="cls-7" d="m1257.8,2978.23v-19.91c0-7.76,6.29-14.05,14.04-14.05h22.22c7.75,0,14.04,6.29,14.04,14.05v19.91c0,7.76-6.29,14.04-14.04,14.04h-22.22c-7.75,0-14.04-6.28-14.04-14.04Z"/>
        <path class="cls-7" d="m1457.21,2958.32v19.91c0,7.76-6.29,14.04-14.05,14.04h-5.09l-138.94,101.32c5.25,2.03,8.97,7.13,8.97,13.09v19.92c0,7.75-6.29,14.04-14.04,14.04h-22.22c-7.75,0-14.04-6.29-14.04-14.04v-19.92c0-7.75,6.29-14.04,14.04-14.04h6l137.49-101.54c-4.96-2.17-8.42-7.11-8.42-12.87v-19.91c0-7.76,6.29-14.05,14.04-14.05h22.21c7.76,0,14.05,6.29,14.05,14.05Z"/>
        <path class="cls-7" d="m1457.21,3106.68v19.92c0,7.75-6.29,14.04-14.05,14.04h-22.21c-7.75,0-14.04-6.29-14.04-14.04v-19.92c0-7.75,6.29-14.04,14.04-14.04h22.21c7.76,0,14.05,6.29,14.05,14.04Z"/>
        <path class="cls-7" d="m1452.91,2856.41h-190.64c-49.52,0-89.66,40.14-89.66,89.66v190.64c0,49.52,40.14,89.66,89.66,89.66h190.64c49.52,0,89.66-40.14,89.66-89.66v-190.64c0-49.52-40.14-89.66-89.66-89.66Zm84.21,275.65c0,49.52-40.14,89.66-89.66,89.66h-179.74c-49.52,0-89.66-40.14-89.66-89.66v-179.74c0-49.52,40.14-89.66,89.66-89.66h179.74c49.52,0,89.66,40.14,89.66,89.66v179.74Z"/>
        <path class="cls-3" d="m1447.46,2862.66h-179.74c-49.52,0-89.66,40.14-89.66,89.66v179.74c0,49.52,40.14,89.66,89.66,89.66h179.74c49.52,0,89.66-40.14,89.66-89.66v-179.74c0-49.52-40.14-89.66-89.66-89.66Zm-189.66,95.66c0-7.76,6.29-14.05,14.04-14.05h22.22c7.75,0,14.04,6.29,14.04,14.05v19.91c0,7.76-6.29,14.04-14.04,14.04h-22.22c-7.75,0-14.04-6.28-14.04-14.04v-19.91Zm199.41,168.28c0,7.75-6.29,14.04-14.05,14.04h-22.21c-7.75,0-14.04-6.29-14.04-14.04v-19.92c0-7.75,6.29-14.04,14.04-14.04h22.21c7.76,0,14.05,6.29,14.05,14.04v19.92Zm0-148.37c0,7.76-6.29,14.04-14.05,14.04h-5.09l-138.94,101.32c5.25,2.03,8.97,7.13,8.97,13.09v19.92c0,7.75-6.29,14.04-14.04,14.04h-22.22c-7.75,0-14.04-6.29-14.04-14.04v-19.92c0-7.75,6.29-14.04,14.04-14.04h6l137.49-101.54c-4.96-2.17-8.42-7.11-8.42-12.87v-19.91c0-7.76,6.29-14.05,14.04-14.05h22.21c7.76,0,14.05,6.29,14.05,14.05v19.91Z"/>
        <path class="cls-3" d="m1257.8,2978.23v-19.91c0-7.76,6.29-14.05,14.04-14.05h22.22c7.75,0,14.04,6.29,14.04,14.05v19.91c0,7.76-6.29,14.04-14.04,14.04h-22.22c-7.75,0-14.04-6.28-14.04-14.04Z"/>
        <path class="cls-3" d="m1457.21,2958.32v19.91c0,7.76-6.29,14.04-14.05,14.04h-5.09l-138.94,101.32c5.25,2.03,8.97,7.13,8.97,13.09v19.92c0,7.75-6.29,14.04-14.04,14.04h-22.22c-7.75,0-14.04-6.29-14.04-14.04v-19.92c0-7.75,6.29-14.04,14.04-14.04h6l137.49-101.54c-4.96-2.17-8.42-7.11-8.42-12.87v-19.91c0-7.76,6.29-14.05,14.04-14.05h22.21c7.76,0,14.05,6.29,14.05,14.05Z"/>
        <path class="cls-3" d="m1457.21,3106.68v19.92c0,7.75-6.29,14.04-14.05,14.04h-22.21c-7.75,0-14.04-6.29-14.04-14.04v-19.92c0-7.75,6.29-14.04,14.04-14.04h22.21c7.76,0,14.05,6.29,14.05,14.04Z"/>
        <path class="cls-18" d="m1308.1,2958.32v19.91c0,7.76-6.29,14.04-14.04,14.04h-22.22c-7.75,0-14.04-6.28-14.04-14.04v-19.91c0-7.76,6.29-14.05,14.04-14.05h22.22c7.75,0,14.04,6.29,14.04,14.05Z"/>
        <path class="cls-18" d="m1308.1,3106.68v19.92c0,7.75-6.29,14.04-14.04,14.04h-22.22c-7.75,0-14.04-6.29-14.04-14.04v-19.92c0-7.75,6.29-14.04,14.04-14.04h22.22c1.79,0,3.5.33,5.07.95,5.25,2.03,8.97,7.13,8.97,13.09Z"/>
        <path class="cls-2" d="m1457.21,3106.68v19.92c0,7.75-6.29,14.04-14.05,14.04h-22.21c-7.75,0-14.04-6.29-14.04-14.04v-19.92c0-7.75,6.29-14.04,14.04-14.04h22.21c7.76,0,14.05,6.29,14.05,14.04Z"/>
        <path class="cls-18" d="m1457.21,2958.32v19.91c0,7.76-6.29,14.04-14.05,14.04h-22.21c-2,0-3.9-.42-5.62-1.17-4.96-2.17-8.42-7.11-8.42-12.87v-19.91c0-7.76,6.29-14.05,14.04-14.05h22.21c7.76,0,14.05,6.29,14.05,14.05Z"/>
        <polygon class="cls-17" points="1441.46 2989.8 1438.07 2992.27 1299.13 3093.59 1282.14 3105.98 1273.72 3095.68 1277.84 3092.64 1415.33 2991.1 1432.06 2978.74 1441.46 2989.8"/>
        <rect class="cls-2" x="1283.5" y="3078.29" width="209.31" height="5"/>
      </g>
    </g>
    <polygon class="cls-22" points="1163.05 1404.65 1210.65 1474.68 1286.15 1335.72 1339.77 1458.27 1425.12 1289.21 1492.41 1289.21 1369.86 1548 1308.95 1398.63 1217.4 1579.55 1124.75 1442.4 1163.05 1404.65"/>
    <rect class="cls-14" x="288" y="1936.82" width="592.34" height="592.34" rx="104" ry="104"/>
    <rect class="cls-14" x="286.24" y="1129.48" width="592.34" height="592.34" rx="164.94" ry="164.94"/>
    <g>
      <path class="cls-11" d="m618.4,2268.18h-142.51v-194.89h142.51c42.86,0,77.61,34.75,77.61,77.61v39.67c0,42.86-34.75,77.61-77.61,77.61Z"/>
      <polygon class="cls-10" points="574.25 2299.99 648.36 2421.63 720.02 2421.63 622.76 2275.86 574.25 2299.99"/>
    </g>
    <g>
      <rect class="cls-14" x="277.4" y="2744.16" width="592.34" height="592.34" rx="164.94" ry="164.94"/>
      <g>
        <path class="cls-7" d="m473.78,2977.17v-19.91c0-7.76,6.29-14.05,14.04-14.05h22.22c7.75,0,14.04,6.29,14.04,14.05v19.91c0,7.76-6.29,14.04-14.04,14.04h-22.22c-7.75,0-14.04-6.28-14.04-14.04Z"/>
        <path class="cls-7" d="m673.19,2957.26v19.91c0,7.76-6.29,14.04-14.05,14.04h-5.09l-138.94,101.32c5.25,2.03,8.97,7.13,8.97,13.09v19.92c0,7.75-6.29,14.04-14.04,14.04h-22.22c-7.75,0-14.04-6.29-14.04-14.04v-19.92c0-7.75,6.29-14.04,14.04-14.04h6l137.49-101.54c-4.96-2.17-8.42-7.11-8.42-12.87v-19.91c0-7.76,6.29-14.05,14.04-14.05h22.21c7.76,0,14.05,6.29,14.05,14.05Z"/>
        <path class="cls-7" d="m673.19,3105.62v19.92c0,7.75-6.29,14.04-14.05,14.04h-22.21c-7.75,0-14.04-6.29-14.04-14.04v-19.92c0-7.75,6.29-14.04,14.04-14.04h22.21c7.76,0,14.05,6.29,14.05,14.04Z"/>
        <path class="cls-20" d="m668.89,2855.35h-190.64c-49.52,0-89.66,40.14-89.66,89.66v190.64c0,49.52,40.14,89.66,89.66,89.66h190.64c49.52,0,89.66-40.14,89.66-89.66v-190.64c0-49.52-40.14-89.66-89.66-89.66Zm84.21,275.65c0,49.52-40.14,89.66-89.66,89.66h-179.74c-49.52,0-89.66-40.14-89.66-89.66v-179.74c0-49.52,40.14-89.66,89.66-89.66h179.74c49.52,0,89.66,40.14,89.66,89.66v179.74Z"/>
        <path class="cls-14" d="m663.44,2861.6h-179.74c-49.52,0-89.66,40.14-89.66,89.66v179.74c0,49.52,40.14,89.66,89.66,89.66h179.74c49.52,0,89.66-40.14,89.66-89.66v-179.74c0-49.52-40.14-89.66-89.66-89.66Zm-189.66,95.66c0-7.76,6.29-14.05,14.04-14.05h22.22c7.75,0,14.04,6.29,14.04,14.05v19.91c0,7.76-6.29,14.04-14.04,14.04h-22.22c-7.75,0-14.04-6.28-14.04-14.04v-19.91Zm199.41,168.28c0,7.75-6.29,14.04-14.05,14.04h-22.21c-7.75,0-14.04-6.29-14.04-14.04v-19.92c0-7.75,6.29-14.04,14.04-14.04h22.21c7.76,0,14.05,6.29,14.05,14.04v19.92Zm0-148.37c0,7.76-6.29,14.04-14.05,14.04h-5.09l-138.94,101.32c5.25,2.03,8.97,7.13,8.97,13.09v19.92c0,7.75-6.29,14.04-14.04,14.04h-22.22c-7.75,0-14.04-6.29-14.04-14.04v-19.92c0-7.75,6.29-14.04,14.04-14.04h6l137.49-101.54c-4.96-2.17-8.42-7.11-8.42-12.87v-19.91c0-7.76,6.29-14.05,14.04-14.05h22.21c7.76,0,14.05,6.29,14.05,14.05v19.91Z"/>
        <path class="cls-3" d="m473.78,2977.17v-19.91c0-7.76,6.29-14.05,14.04-14.05h22.22c7.75,0,14.04,6.29,14.04,14.05v19.91c0,7.76-6.29,14.04-14.04,14.04h-22.22c-7.75,0-14.04-6.28-14.04-14.04Z"/>
        <path class="cls-3" d="m673.19,2957.26v19.91c0,7.76-6.29,14.04-14.05,14.04h-5.09l-138.94,101.32c5.25,2.03,8.97,7.13,8.97,13.09v19.92c0,7.75-6.29,14.04-14.04,14.04h-22.22c-7.75,0-14.04-6.29-14.04-14.04v-19.92c0-7.75,6.29-14.04,14.04-14.04h6l137.49-101.54c-4.96-2.17-8.42-7.11-8.42-12.87v-19.91c0-7.76,6.29-14.05,14.04-14.05h22.21c7.76,0,14.05,6.29,14.05,14.05Z"/>
        <path class="cls-3" d="m673.19,3105.62v19.92c0,7.75-6.29,14.04-14.05,14.04h-22.21c-7.75,0-14.04-6.29-14.04-14.04v-19.92c0-7.75,6.29-14.04,14.04-14.04h22.21c7.76,0,14.05,6.29,14.05,14.04Z"/>
        <path class="cls-6" d="m524.08,2957.26v19.91c0,7.76-6.29,14.04-14.04,14.04h-22.22c-7.75,0-14.04-6.28-14.04-14.04v-19.91c0-7.76,6.29-14.05,14.04-14.05h22.22c7.75,0,14.04,6.29,14.04,14.05Z"/>
        <path class="cls-6" d="m524.08,3105.62v19.92c0,7.75-6.29,14.04-14.04,14.04h-22.22c-7.75,0-14.04-6.29-14.04-14.04v-19.92c0-7.75,6.29-14.04,14.04-14.04h22.22c1.79,0,3.5.33,5.07.95,5.25,2.03,8.97,7.13,8.97,13.09Z"/>
        <path class="cls-2" d="m673.19,3105.62v19.92c0,7.75-6.29,14.04-14.05,14.04h-22.21c-7.75,0-14.04-6.29-14.04-14.04v-19.92c0-7.75,6.29-14.04,14.04-14.04h22.21c7.76,0,14.05,6.29,14.05,14.04Z"/>
        <path class="cls-6" d="m673.19,2957.26v19.91c0,7.76-6.29,14.04-14.05,14.04h-22.21c-2,0-3.9-.42-5.62-1.17-4.96-2.17-8.42-7.11-8.42-12.87v-19.91c0-7.76,6.29-14.05,14.04-14.05h22.21c7.76,0,14.05,6.29,14.05,14.05Z"/>
        <polygon class="cls-19" points="657.44 2988.74 654.05 2991.21 515.11 3092.53 498.12 3104.92 489.7 3094.62 493.82 3091.58 631.31 2990.04 648.04 2977.68 657.44 2988.74"/>
        <rect class="cls-2" x="499.47" y="3077.22" width="209.31" height="5"/>
      </g>
    </g>
    <polygon class="cls-22" points="436.88 1404.65 484.48 1474.68 559.98 1335.72 613.6 1458.27 698.95 1289.21 766.24 1289.21 643.69 1548 582.78 1398.63 491.23 1579.55 398.58 1442.4 436.88 1404.65"/>
    <g>
      <rect class="cls-14" x="277.4" y="301.74" width="592.34" height="592.34" rx="164.94" ry="164.94"/>
      <g>
        <polygon class="cls-23" points="354.79 540.39 469.48 471.58 584.17 540.39 469.48 609.21 354.79 540.39"/>
        <polygon class="cls-24" points="584.17 540.39 698.86 471.58 813.55 540.39 698.86 609.21 584.17 540.39"/>
        <polygon class="cls-21" points="354.79 540.39 354.79 678.02 469.48 746.84 469.48 609.21 354.79 540.39"/>
        <polygon class="cls-4" points="584.17 540.39 584.17 678.02 698.86 746.84 698.86 609.21 584.17 540.39"/>
        <polygon class="cls-12" points="469.48 609.21 584.17 540.39 698.86 609.21 584.17 678.02 469.48 609.21"/>
      </g>
    </g>
    <g>
      <rect class="cls-13" x="1012.41" y="301.74" width="592.34" height="592.34" rx="164.94" ry="164.94"/>
      <g>
        <polygon class="cls-23" points="1089.8 540.39 1204.49 471.58 1319.18 540.39 1204.49 609.21 1089.8 540.39"/>
        <polygon class="cls-24" points="1319.18 540.39 1433.87 471.58 1548.56 540.39 1433.87 609.21 1319.18 540.39"/>
        <polygon class="cls-21" points="1089.8 540.39 1089.8 678.02 1204.49 746.84 1204.49 609.21 1089.8 540.39"/>
        <polygon class="cls-4" points="1319.18 540.39 1319.18 678.02 1433.87 746.84 1433.87 609.21 1319.18 540.39"/>
        <polygon class="cls-12" points="1204.49 609.21 1319.18 540.39 1433.87 609.21 1319.18 678.02 1204.49 609.21"/>
      </g>
    </g>
    <g>
      <rect class="cls-13" x="1767.44" y="437.13" width="741.62" height="321.56" rx="160.78" ry="160.78"/>
      <g>
        <polygon class="cls-23" points="1869.75 580.37 1891.67 567.22 1913.6 580.37 1891.67 593.53 1869.75 580.37"/>
        <polygon class="cls-24" points="1913.6 580.37 1935.52 567.22 1957.45 580.37 1935.52 593.53 1913.6 580.37"/>
        <polygon class="cls-21" points="1869.75 580.37 1869.75 606.68 1891.67 619.84 1891.67 593.53 1869.75 580.37"/>
        <polygon class="cls-4" points="1913.6 580.37 1913.6 606.68 1935.52 619.84 1935.52 593.53 1913.6 580.37"/>
        <polygon class="cls-12" points="1891.67 593.53 1913.6 580.37 1935.52 593.53 1913.6 606.68 1891.67 593.53"/>
      </g>
      <path class="cls-9" d="m2005.8,636.21v-61.06h11.46v8.51l-1.06-2.46c1.47-2.24,3.48-3.97,6.02-5.2s5.44-1.84,8.72-1.84c4.26,0,8.1,1.04,11.54,3.11,3.44,2.07,6.17,4.87,8.19,8.39,2.02,3.52,3.03,7.46,3.03,11.83s-1,8.24-2.99,11.79c-1.99,3.55-4.71,6.36-8.14,8.43-3.44,2.07-7.34,3.11-11.7,3.11-3.06,0-5.88-.56-8.47-1.68-2.59-1.12-4.68-2.77-6.26-4.95l1.96-2.54v24.56h-12.28Zm23.57-26.44c2.29,0,4.31-.52,6.06-1.56s3.11-2.48,4.09-4.34,1.47-3.98,1.47-6.38-.49-4.52-1.47-6.34-2.35-3.27-4.09-4.34-3.77-1.6-6.06-1.6-4.13.52-5.85,1.56-3.06,2.48-4.01,4.34-1.43,3.98-1.43,6.38.48,4.53,1.43,6.38,2.29,3.3,4.01,4.34,3.67,1.56,5.85,1.56Z"/>
      <path class="cls-9" d="m2060.89,619.84v-44.69h11.46v10.72l-.82-1.56c.98-3.77,2.61-6.32,4.87-7.65,2.26-1.34,4.95-2.01,8.06-2.01h2.62v10.64h-3.85c-3,0-5.43.91-7.28,2.74-1.86,1.83-2.78,4.41-2.78,7.73v24.06h-12.28Z"/>
      <path class="cls-9" d="m2114.66,620.82c-4.42,0-8.44-1.01-12.07-3.03-3.63-2.02-6.52-4.79-8.68-8.31-2.16-3.52-3.23-7.52-3.23-11.99s1.08-8.54,3.23-12.03c2.16-3.49,5.05-6.25,8.68-8.27,3.63-2.02,7.65-3.03,12.07-3.03s8.43,1.01,12.03,3.03c3.6,2.02,6.48,4.77,8.64,8.27s3.23,7.5,3.23,12.03-1.08,8.47-3.23,11.99-5.03,6.29-8.64,8.31c-3.6,2.02-7.61,3.03-12.03,3.03Zm0-11.05c2.24,0,4.19-.52,5.85-1.56s2.97-2.48,3.93-4.34,1.43-3.98,1.43-6.38-.48-4.52-1.43-6.34-2.26-3.27-3.93-4.34-3.62-1.6-5.85-1.6-4.2.53-5.89,1.6c-1.69,1.06-3.01,2.51-3.97,4.34s-1.43,3.94-1.43,6.34.48,4.53,1.43,6.38,2.28,3.3,3.97,4.34c1.69,1.04,3.66,1.56,5.89,1.56Z"/>
      <path class="cls-9" d="m2140.36,638.01c-.82,0-1.62-.04-2.41-.12-.79-.08-1.46-.18-2.01-.29v-10.48c.93.16,1.86.25,2.78.25,2.35,0,4.11-.49,5.28-1.47,1.17-.98,1.76-2.46,1.76-4.42v-46.33h12.28v46.33c0,3.49-.7,6.48-2.09,8.96-1.39,2.48-3.41,4.37-6.06,5.65-2.65,1.28-5.83,1.92-9.54,1.92Zm5.4-66.87v-12.28h12.28v12.28h-12.28Z"/>
      <path class="cls-9" d="m2188.57,620.82c-4.75,0-8.87-1.05-12.36-3.15-3.49-2.1-6.19-4.92-8.1-8.47-1.91-3.55-2.86-7.48-2.86-11.79s1-8.46,2.99-11.95c1.99-3.49,4.68-6.25,8.06-8.27,3.38-2.02,7.2-3.03,11.46-3.03,3.55,0,6.68.56,9.41,1.68s5.03,2.69,6.92,4.71c1.88,2.02,3.31,4.35,4.3,7s1.47,5.52,1.47,8.64c0,.87-.04,1.73-.12,2.58-.08.85-.23,1.57-.45,2.17h-33.48v-9h26.52l-5.81,4.26c.55-2.35.52-4.43-.08-6.26s-1.65-3.27-3.15-4.34-3.34-1.6-5.52-1.6-3.96.52-5.48,1.56c-1.53,1.04-2.67,2.56-3.44,4.58s-1.06,4.47-.9,7.37c-.22,2.51.08,4.72.9,6.63s2.07,3.4,3.77,4.46c1.69,1.06,3.74,1.6,6.14,1.6,2.18,0,4.05-.44,5.61-1.31,1.56-.87,2.77-2.07,3.64-3.6l9.82,4.67c-.87,2.18-2.25,4.09-4.13,5.73s-4.11,2.91-6.67,3.81-5.37,1.35-8.43,1.35Z"/>
      <path class="cls-9" d="m2238.99,620.82c-4.47,0-8.5-1.02-12.07-3.07s-6.41-4.84-8.51-8.39c-2.1-3.55-3.15-7.53-3.15-11.95s1.04-8.39,3.11-11.91c2.07-3.52,4.91-6.29,8.51-8.31,3.6-2.02,7.64-3.03,12.11-3.03,3.33,0,6.41.57,9.25,1.72s5.27,2.74,7.28,4.79c2.02,2.05,3.47,4.46,4.34,7.24l-10.64,4.58c-.76-2.24-2.06-4.01-3.89-5.32s-3.94-1.96-6.34-1.96c-2.13,0-4.02.52-5.69,1.56-1.66,1.04-2.97,2.48-3.93,4.34s-1.43,3.98-1.43,6.38.48,4.53,1.43,6.38,2.26,3.3,3.93,4.34c1.66,1.04,3.56,1.56,5.69,1.56,2.46,0,4.58-.65,6.38-1.96s3.08-3.08,3.85-5.32l10.64,4.67c-.82,2.62-2.24,4.97-4.26,7.04-2.02,2.07-4.45,3.7-7.28,4.87-2.84,1.17-5.95,1.76-9.33,1.76Z"/>
      <path class="cls-9" d="m2288.6,620.33c-5.4,0-9.59-1.46-12.56-4.38-2.97-2.92-4.46-7-4.46-12.24v-17.93h-7.53v-10.64h.41c2.29,0,4.05-.57,5.28-1.72s1.84-2.86,1.84-5.16v-3.27h12.28v10.15h10.48v10.64h-10.48v17.11c0,1.53.27,2.8.82,3.81s1.39,1.76,2.54,2.25,2.56.74,4.26.74c.38,0,.82-.03,1.31-.08s1.01-.11,1.56-.16v10.4c-.82.11-1.75.22-2.78.33-1.04.11-2.02.16-2.95.16Z"/>
      <path class="cls-12" d="m2313.89,619.84l-15.96-60.98h13.75l12.03,51.08h-3.68l12.69-51.08h13.1l12.69,51.08h-3.68l12.03-51.08h13.75l-15.96,60.98h-14.73l-12.77-49.11h4.26l-12.77,49.11h-14.73Z"/>
    </g>
    <g>
      <rect class="cls-14" x="2589.6" y="431.8" width="708.57" height="323.45" rx="161.72" ry="161.72"/>
      <g>
        <polygon class="cls-21" points="2692.51 575.89 2714.57 562.65 2736.62 575.89 2714.57 589.12 2692.51 575.89"/>
        <polygon class="cls-24" points="2736.62 575.89 2758.67 562.65 2780.73 575.89 2758.67 589.12 2736.62 575.89"/>
        <polygon class="cls-5" points="2692.51 575.89 2692.51 602.35 2714.57 615.58 2714.57 589.12 2692.51 575.89"/>
        <polygon class="cls-4" points="2736.62 575.89 2736.62 602.35 2758.67 615.58 2758.67 589.12 2736.62 575.89"/>
        <polygon class="cls-15" points="2714.57 589.12 2736.62 575.89 2758.67 589.12 2736.62 602.35 2714.57 589.12"/>
      </g>
      <path class="cls-1" d="m2829.36,632.05v-61.42h11.53v8.56l-1.07-2.47c1.48-2.25,3.5-3.99,6.05-5.23,2.55-1.23,5.48-1.85,8.77-1.85,4.28,0,8.15,1.04,11.61,3.13,3.46,2.09,6.2,4.9,8.23,8.44,2.03,3.54,3.05,7.51,3.05,11.9s-1,8.29-3.01,11.86c-2,3.57-4.73,6.39-8.19,8.48-3.46,2.09-7.38,3.13-11.77,3.13-3.07,0-5.91-.56-8.52-1.69-2.61-1.13-4.71-2.79-6.3-4.98l1.98-2.55v24.7h-12.35Zm23.71-26.59c2.31,0,4.34-.52,6.09-1.56s3.13-2.5,4.12-4.36,1.48-4.01,1.48-6.42-.49-4.54-1.48-6.38-2.36-3.29-4.12-4.36-3.79-1.61-6.09-1.61-4.16.52-5.89,1.56c-1.73,1.04-3.07,2.5-4.03,4.36s-1.44,4.01-1.44,6.42.48,4.56,1.44,6.42,2.31,3.32,4.03,4.36,3.69,1.56,5.89,1.56Z"/>
      <path class="cls-1" d="m2884.77,615.58v-44.95h11.53v10.79l-.82-1.56c.99-3.79,2.62-6.35,4.9-7.7,2.28-1.34,4.98-2.02,8.11-2.02h2.63v10.7h-3.87c-3.02,0-5.46.92-7.33,2.76-1.87,1.84-2.8,4.43-2.8,7.78v24.21h-12.35Z"/>
      <path class="cls-1" d="m2938.86,616.57c-4.45,0-8.49-1.02-12.14-3.05-3.65-2.03-6.56-4.82-8.73-8.36-2.17-3.54-3.25-7.56-3.25-12.06s1.08-8.59,3.25-12.1c2.17-3.51,5.08-6.28,8.73-8.32,3.65-2.03,7.7-3.05,12.14-3.05s8.48,1.02,12.1,3.05c3.62,2.03,6.52,4.8,8.69,8.32s3.25,7.55,3.25,12.1-1.08,8.52-3.25,12.06-5.06,6.33-8.69,8.36c-3.62,2.03-7.66,3.05-12.1,3.05Zm0-11.11c2.25,0,4.21-.52,5.89-1.56s2.99-2.5,3.95-4.36,1.44-4.01,1.44-6.42-.48-4.54-1.44-6.38-2.28-3.29-3.95-4.36-3.64-1.61-5.89-1.61-4.23.54-5.93,1.61c-1.7,1.07-3.03,2.52-3.99,4.36s-1.44,3.97-1.44,6.38.48,4.56,1.44,6.42,2.29,3.32,3.99,4.36c1.7,1.04,3.68,1.56,5.93,1.56Z"/>
      <path class="cls-1" d="m2964.71,633.86c-.82,0-1.63-.04-2.43-.12-.8-.08-1.47-.18-2.02-.29v-10.54c.93.16,1.87.25,2.8.25,2.36,0,4.13-.49,5.31-1.48,1.18-.99,1.77-2.47,1.77-4.45v-46.6h12.35v46.6c0,3.51-.7,6.52-2.1,9.02-1.4,2.5-3.43,4.39-6.09,5.68-2.66,1.29-5.86,1.93-9.59,1.93Zm5.43-67.27v-12.35h12.35v12.35h-12.35Z"/>
      <path class="cls-1" d="m3013.21,616.57c-4.78,0-8.92-1.06-12.43-3.17-3.51-2.11-6.23-4.95-8.15-8.52-1.92-3.57-2.88-7.52-2.88-11.86s1-8.51,3.01-12.02c2-3.51,4.71-6.28,8.11-8.32,3.4-2.03,7.25-3.05,11.53-3.05,3.57,0,6.72.56,9.47,1.69s5.06,2.7,6.96,4.73,3.33,4.38,4.32,7.04,1.48,5.56,1.48,8.69c0,.88-.04,1.74-.12,2.59-.08.85-.23,1.58-.45,2.18h-33.67v-9.06h26.68l-5.85,4.28c.55-2.36.52-4.46-.08-6.3s-1.66-3.29-3.17-4.36-3.36-1.61-5.56-1.61-3.98.52-5.52,1.56c-1.54,1.04-2.69,2.58-3.46,4.61s-1.07,4.5-.91,7.41c-.22,2.52.08,4.75.91,6.67s2.09,3.42,3.79,4.49c1.7,1.07,3.76,1.61,6.17,1.61,2.2,0,4.08-.44,5.64-1.32,1.56-.88,2.79-2.09,3.66-3.62l9.88,4.69c-.88,2.2-2.26,4.12-4.16,5.76-1.89,1.65-4.13,2.92-6.71,3.83s-5.41,1.36-8.48,1.36Z"/>
      <path class="cls-1" d="m3063.93,616.57c-4.5,0-8.55-1.03-12.14-3.09s-6.45-4.87-8.56-8.44c-2.11-3.57-3.17-7.57-3.17-12.02s1.04-8.44,3.13-11.98c2.09-3.54,4.94-6.33,8.56-8.36,3.62-2.03,7.68-3.05,12.19-3.05,3.35,0,6.45.58,9.3,1.73s5.3,2.76,7.33,4.82c2.03,2.06,3.49,4.49,4.36,7.29l-10.7,4.61c-.77-2.25-2.07-4.03-3.91-5.35s-3.97-1.98-6.38-1.98c-2.14,0-4.05.52-5.72,1.56-1.67,1.04-2.99,2.5-3.95,4.36-.96,1.87-1.44,4.01-1.44,6.42s.48,4.56,1.44,6.42,2.28,3.32,3.95,4.36c1.67,1.04,3.58,1.56,5.72,1.56,2.47,0,4.61-.66,6.42-1.98s3.1-3.1,3.87-5.35l10.7,4.69c-.82,2.63-2.25,4.99-4.28,7.08-2.03,2.09-4.47,3.72-7.33,4.9-2.85,1.18-5.98,1.77-9.39,1.77Z"/>
      <path class="cls-1" d="m3113.82,616.08c-5.43,0-9.65-1.47-12.64-4.4-2.99-2.94-4.49-7.04-4.49-12.31v-18.03h-7.57v-10.7h.41c2.31,0,4.08-.58,5.31-1.73s1.85-2.88,1.85-5.19v-3.29h12.35v10.21h10.54v10.7h-10.54v17.21c0,1.54.27,2.81.82,3.83s1.4,1.77,2.55,2.26,2.58.74,4.28.74c.38,0,.82-.03,1.32-.08s1.02-.11,1.56-.16v10.46c-.82.11-1.76.22-2.8.33-1.04.11-2.03.16-2.96.16Z"/>
      <path class="cls-21" d="m3139.26,615.58l-16.05-61.34h13.83l12.1,51.38h-3.7l12.76-51.38h13.17l12.76,51.38h-3.7l12.1-51.38h13.83l-16.05,61.34h-14.82l-12.84-49.4h4.28l-12.84,49.4h-14.82Z"/>
    </g>
    <g>
      <path class="cls-6" d="m2068.4,1502.01c-10.98,5.49-32.94,10.98-61.08,10.98-65.19,0-114.26-41.18-114.26-117.01s49.07-121.47,120.78-121.47c28.82,0,47.01,6.18,54.9,10.29l-7.21,24.36c-11.32-5.49-27.45-9.61-46.66-9.61-54.21,0-90.24,34.66-90.24,95.39,0,56.62,32.6,92.99,88.87,92.99,18.19,0,36.71-3.77,48.72-9.61l6.18,23.68Z"/>
      <path class="cls-6" d="m2104.77,1265.94h30.2v103.62h.69c4.8-8.58,12.35-16.13,21.62-21.27,8.92-5.15,19.56-8.58,30.88-8.58,22.3,0,57.99,13.72,57.99,71.03v98.82h-30.19v-95.39c0-26.76-9.95-49.41-38.43-49.41-19.56,0-35,13.73-40.49,30.2-1.72,4.12-2.06,8.58-2.06,14.41v100.19h-30.2v-243.62Z"/>
      <path class="cls-6" d="m2387.16,1509.56l-2.4-20.93h-1.03c-9.26,13.04-27.11,24.71-50.78,24.71-33.63,0-50.78-23.68-50.78-47.69,0-40.15,35.68-62.11,99.85-61.76v-3.43c0-13.73-3.77-38.43-37.74-38.43-15.44,0-31.57,4.8-43.23,12.35l-6.86-19.9c13.73-8.92,33.63-14.75,54.56-14.75,50.78,0,63.13,34.66,63.13,67.94v62.11c0,14.41.69,28.48,2.75,39.8h-27.45Zm-4.46-84.75c-32.94-.69-70.34,5.15-70.34,37.4,0,19.56,13.04,28.82,28.48,28.82,21.62,0,35.34-13.73,40.15-27.79,1.03-3.09,1.72-6.52,1.72-9.61v-28.82Z"/>
      <path class="cls-6" d="m2460.58,1395.3c0-19.56-.34-36.37-1.37-51.81h26.42l1.03,32.6h1.37c7.55-22.3,25.73-36.37,45.98-36.37,3.43,0,5.83.34,8.58,1.03v28.48c-3.09-.69-6.18-1.03-10.29-1.03-21.27,0-36.37,16.13-40.49,38.77-.69,4.12-1.37,8.92-1.37,14.07v88.53h-29.85v-114.26Z"/>
      <path class="cls-6" d="m2713.12,1343.49c-.69,12.01-1.37,25.39-1.37,45.64v96.42c0,38.09-7.55,61.42-23.68,75.83-16.13,15.1-39.46,19.9-60.39,19.9s-41.86-4.8-55.24-13.72l7.55-22.99c10.98,6.86,28.14,13.04,48.72,13.04,30.88,0,53.53-16.13,53.53-57.99v-18.53h-.69c-9.26,15.44-27.11,27.79-52.84,27.79-41.17,0-70.68-35-70.68-80.98,0-56.27,36.71-88.18,74.8-88.18,28.82,0,44.61,15.1,51.81,28.82h.69l1.37-25.05h26.42Zm-31.22,65.54c0-5.15-.34-9.61-1.71-13.73-5.49-17.5-20.25-31.91-42.21-31.91-28.82,0-49.41,24.36-49.41,62.79,0,32.6,16.47,59.7,49.07,59.7,18.53,0,35.34-11.67,41.86-30.88,1.72-5.15,2.4-10.98,2.4-16.13v-29.85Z"/>
      <path class="cls-6" d="m2778.66,1432.01c.69,40.83,26.76,57.64,56.96,57.64,21.62,0,34.66-3.77,45.98-8.58l5.15,21.62c-10.64,4.8-28.82,10.29-55.24,10.29-51.12,0-81.66-33.63-81.66-83.72s29.51-89.56,77.89-89.56c54.21,0,68.62,47.69,68.62,78.23,0,6.18-.69,10.98-1.03,14.07h-116.66Zm88.53-21.62c.34-19.21-7.89-49.07-41.86-49.07-30.54,0-43.92,28.14-46.32,49.07h88.18Z"/>
      <path class="cls-6" d="m3110.8,1499.26c-13.38,4.8-39.8,12.7-71.03,12.7-35,0-63.82-8.92-86.47-30.54-19.9-19.22-32.25-50.1-32.25-86.12.34-68.97,47.69-119.41,125.24-119.41,26.76,0,47.69,5.83,57.64,10.64l-7.21,24.36c-12.35-5.49-27.79-9.95-51.13-9.95-56.27,0-92.99,35-92.99,92.99s35.34,93.33,89.21,93.33c19.56,0,32.94-2.75,39.8-6.18v-68.97h-47.01v-24.02h76.17v111.17Z"/>
      <path class="cls-6" d="m3294.37,1464.27c0,17.16.34,32.25,1.37,45.29h-26.76l-1.72-27.11h-.69c-7.89,13.38-25.39,30.88-54.9,30.88-26.08,0-57.3-14.41-57.3-72.74v-97.1h30.2v91.96c0,31.57,9.61,52.84,37.06,52.84,20.24,0,34.31-14.07,39.8-27.45,1.72-4.46,2.75-9.95,2.75-15.44v-101.91h30.2v120.78Z"/>
      <path class="cls-6" d="m3436.42,1509.56l-2.4-20.93h-1.03c-9.26,13.04-27.11,24.71-50.78,24.71-33.63,0-50.78-23.68-50.78-47.69,0-40.15,35.68-62.11,99.85-61.76v-3.43c0-13.73-3.77-38.43-37.74-38.43-15.44,0-31.57,4.8-43.23,12.35l-6.86-19.9c13.73-8.92,33.63-14.75,54.56-14.75,50.78,0,63.13,34.66,63.13,67.94v62.11c0,14.41.69,28.48,2.75,39.8h-27.45Zm-4.46-84.75c-32.94-.69-70.34,5.15-70.34,37.4,0,19.56,13.04,28.82,28.48,28.82,21.62,0,35.34-13.73,40.15-27.79,1.03-3.09,1.72-6.52,1.72-9.61v-28.82Z"/>
      <path class="cls-6" d="m3509.85,1395.3c0-19.56-.34-36.37-1.37-51.81h26.42l1.03,32.6h1.37c7.55-22.3,25.73-36.37,45.98-36.37,3.43,0,5.83.34,8.58,1.03v28.48c-3.09-.69-6.18-1.03-10.29-1.03-21.27,0-36.37,16.13-40.49,38.77-.69,4.12-1.37,8.92-1.37,14.07v88.53h-29.85v-114.26Z"/>
      <path class="cls-6" d="m3762.04,1265.94v200.73c0,14.75.34,31.57,1.37,42.89h-27.11l-1.37-28.82h-.69c-9.26,18.53-29.51,32.6-56.62,32.6-40.15,0-71.03-33.97-71.03-84.41-.34-55.24,33.97-89.21,74.46-89.21,25.39,0,42.55,12.01,50.1,25.39h.69v-99.16h30.19Zm-30.19,145.14c0-3.77-.34-8.92-1.37-12.7-4.46-19.22-20.93-35-43.58-35-31.22,0-49.75,27.45-49.75,64.16,0,33.63,16.47,61.42,49.07,61.42,20.24,0,38.77-13.38,44.26-36.03,1.03-4.12,1.37-8.24,1.37-13.04v-28.82Z"/>
    </g>
    <g>
      <path class="cls-6" d="m1944.03,2082.47c17.62-3.6,42.84-5.61,66.87-5.61,37.24,0,61.26,6.81,78.08,22.02,13.61,12.01,21.22,30.43,21.22,51.25,0,35.64-22.42,59.26-50.85,68.87v1.2c20.82,7.21,33.23,26.43,39.64,54.46,8.81,37.64,15.22,63.67,20.82,74.08h-36.04c-4.41-7.61-10.41-30.83-18.02-64.47-8.01-37.24-22.42-51.25-54.05-52.45h-32.83v116.92h-34.84v-266.27Zm34.84,122.92h35.64c37.24,0,60.86-20.42,60.86-51.25,0-34.83-25.23-50.05-62.06-50.45-16.82,0-28.83,1.6-34.43,3.2v98.5Z"/>
      <path class="cls-6" d="m2179.47,2258.25c.8,47.65,31.23,67.27,66.47,67.27,25.22,0,40.44-4.4,53.65-10.01l6.01,25.23c-12.41,5.61-33.63,12.01-64.47,12.01-59.66,0-95.3-39.24-95.3-97.7s34.43-104.51,90.89-104.51c63.26,0,80.08,55.66,80.08,91.29,0,7.21-.8,12.81-1.2,16.42h-136.14Zm103.3-25.23c.4-22.42-9.21-57.26-48.85-57.26-35.64,0-51.25,32.83-54.05,57.26h102.9Z"/>
      <path class="cls-6" d="m2360.44,2064.46h35.24v284.29h-35.24v-284.29Z"/>
      <path class="cls-6" d="m2562.25,2348.74l-2.8-24.42h-1.2c-10.81,15.22-31.63,28.83-59.26,28.83-39.24,0-59.26-27.63-59.26-55.66,0-46.85,41.64-72.47,116.52-72.07v-4c0-16.02-4.4-44.85-44.04-44.85-18.02,0-36.84,5.61-50.45,14.42l-8.01-23.22c16.02-10.41,39.24-17.22,63.67-17.22,59.26,0,73.67,40.44,73.67,79.28v72.47c0,16.82.8,33.23,3.2,46.45h-32.03Zm-5.21-98.9c-38.44-.8-82.08,6.01-82.08,43.64,0,22.82,15.22,33.63,33.23,33.63,25.23,0,41.24-16.02,46.85-32.43,1.2-3.6,2-7.61,2-11.21v-33.63Z"/>
      <path class="cls-6" d="m2657.54,2154.95l42.44,114.52c4.4,12.81,9.21,28.03,12.41,39.64h.8c3.6-11.61,7.61-26.43,12.41-40.44l38.44-113.72h37.24l-52.85,138.14c-25.23,66.47-42.44,100.5-66.47,121.32-17.22,15.21-34.44,21.22-43.24,22.82l-8.81-29.63c8.81-2.8,20.42-8.41,30.83-17.22,9.61-7.61,21.62-21.22,29.63-39.24,1.6-3.6,2.8-6.41,2.8-8.41s-.8-4.8-2.4-9.21l-71.67-178.58h38.44Z"/>
      <path class="cls-6" d="m3065.15,2211c0,92.89-56.46,142.14-125.33,142.14s-121.32-55.26-121.32-136.94c0-85.69,53.25-141.74,125.33-141.74s121.32,56.46,121.32,136.54Zm-209.41,4.4c0,57.66,31.23,109.31,86.09,109.31s86.49-50.85,86.49-112.11c0-53.65-28.03-109.71-86.09-109.71s-86.49,53.25-86.49,112.51Z"/>
      <path class="cls-6" d="m3151.64,2108.5h-82.08v-29.63h199.8v29.63h-82.48v240.24h-35.24v-240.24Z"/>
      <path class="cls-6" d="m3299.39,2082.07c16.82-2.8,38.84-5.21,66.87-5.21,34.43,0,59.66,8.01,75.68,22.42,14.81,12.81,23.62,32.43,23.62,56.46s-7.21,43.64-20.82,57.66c-18.42,19.62-48.45,29.63-82.48,29.63-10.41,0-20.02-.4-28.03-2.4v108.11h-34.84v-266.67Zm34.84,130.13c7.61,2,17.22,2.8,28.83,2.8,42.04,0,67.67-20.42,67.67-57.66s-25.23-52.85-63.66-52.85c-15.22,0-26.83,1.2-32.83,2.8v104.91Z"/>
    </g>
    <g>
      <path class="cls-6" d="m2122.81,3145.62c-36.44-9.61-72.07-20.42-103.3-31.23-5.61-2-11.21-4-16.42-4-64.06-2.4-118.92-49.65-118.92-136.54s52.85-142.14,125.73-142.14,120.92,56.86,120.92,136.54c0,69.27-32.03,113.71-76.88,129.33v1.6c26.83,6.81,56.06,13.21,78.88,17.22l-10.01,29.23Zm-28.83-175.78c0-54.05-28.03-109.71-85.29-109.71s-87.69,54.46-87.29,112.92c-.4,57.26,31.23,108.91,85.69,108.91s86.89-50.45,86.89-112.11Z"/>
      <path class="cls-6" d="m2176.06,2839.71c17.62-3.6,42.84-5.61,66.87-5.61,37.24,0,61.26,6.81,78.08,22.02,13.61,12.01,21.22,30.43,21.22,51.25,0,35.64-22.42,59.26-50.85,68.87v1.2c20.82,7.21,33.23,26.43,39.64,54.46,8.81,37.64,15.22,63.67,20.82,74.08h-36.04c-4.41-7.61-10.41-30.83-18.02-64.47-8.01-37.24-22.42-51.25-54.05-52.45h-32.83v116.92h-34.84v-266.27Zm34.84,122.92h35.64c37.24,0,60.86-20.42,60.86-51.25,0-34.83-25.23-50.05-62.06-50.45-16.82,0-28.83,1.6-34.43,3.2v98.5Z"/>
      <path class="cls-6" d="m2581.26,3097.18c-12.81,6.41-38.44,12.81-71.27,12.81-76.08,0-133.33-48.05-133.33-136.54s57.26-141.74,140.94-141.74c33.63,0,54.86,7.21,64.07,12.01l-8.41,28.43c-13.21-6.41-32.03-11.21-54.46-11.21-63.26,0-105.31,40.44-105.31,111.31,0,66.07,38.04,108.51,103.71,108.51,21.22,0,42.84-4.4,56.86-11.21l7.21,27.63Z"/>
      <path class="cls-6" d="m2622.5,2972.65c0-22.82-.4-42.44-1.6-60.46h30.83l1.2,38.04h1.6c8.81-26.03,30.03-42.44,53.65-42.44,4,0,6.81.4,10.01,1.2v33.23c-3.6-.8-7.21-1.2-12.01-1.2-24.83,0-42.44,18.82-47.25,45.25-.8,4.81-1.6,10.41-1.6,16.42v103.3h-34.83v-133.33Z"/>
      <path class="cls-6" d="m2858.74,3105.98l-2.8-24.42h-1.2c-10.81,15.22-31.63,28.83-59.26,28.83-39.24,0-59.26-27.63-59.26-55.66,0-46.85,41.64-72.47,116.52-72.07v-4c0-16.02-4.4-44.85-44.04-44.85-18.02,0-36.84,5.61-50.45,14.42l-8.01-23.22c16.02-10.41,39.24-17.22,63.67-17.22,59.26,0,73.67,40.44,73.67,79.28v72.47c0,16.82.8,33.23,3.2,46.45h-32.03Zm-5.21-98.9c-38.44-.8-82.08,6.01-82.08,43.64,0,22.82,15.22,33.63,33.23,33.63,25.23,0,41.24-16.02,46.85-32.43,1.2-3.6,2-7.61,2-11.21v-33.63Z"/>
      <path class="cls-6" d="m2948.03,3105.98v-166.97h-27.23v-26.83h27.23v-9.21c0-27.23,6.01-52.05,22.42-67.67,13.21-12.81,30.83-18.02,47.25-18.02,12.41,0,23.22,2.8,30.03,5.61l-4.8,27.23c-5.21-2.4-12.41-4.4-22.42-4.4-30.03,0-37.64,26.43-37.64,56.06v10.41h46.85v26.83h-46.85v166.97h-34.84Z"/>
      <path class="cls-6" d="m3108.19,2856.53v55.66h50.45v26.83h-50.45v104.51c0,24.02,6.81,37.64,26.43,37.64,9.21,0,16.02-1.2,20.42-2.4l1.6,26.43c-6.81,2.8-17.62,4.8-31.23,4.8-16.42,0-29.63-5.21-38.04-14.81-10.01-10.41-13.61-27.63-13.61-50.45v-105.71h-30.03v-26.83h30.03v-46.45l34.44-9.21Z"/>
    </g>
  </g>
</svg>